<?xml version="1.0" standalone="no"?>
<!DOCTYPE svg PUBLIC "-//W3C//DTD SVG 20010904//EN"
 "http://www.w3.org/TR/2001/REC-SVG-20010904/DTD/svg10.dtd">
<svg version="1.0" xmlns="http://www.w3.org/2000/svg"
 width="167.000000pt" height="167.000000pt" viewBox="0 0 167.000000 167.000000"
 preserveAspectRatio="xMidYMid meet">
<metadata>
Created by potrace 1.14, written by Peter Selinger 2001-2017
</metadata>
<g transform="translate(0.000000,167.000000) scale(0.100000,-0.100000)"
fill="#000000" stroke="none">
<path d="M63 1423 l-48 -52 0 -566 c0 -311 3 -564 6 -563 4 2 51 44 104 93 54
50 107 98 119 108 21 18 21 25 21 403 0 278 3 387 12 392 6 4 184 7 395 6
l384 -1 1 114 1 113 -32 1 c-17 0 -230 1 -473 2 l-441 2 -49 -52z"/>
<path d="M1127 1472 c-13 -3 -16 -25 -19 -145 -3 -130 -5 -145 -26 -175 -48
-67 -61 -69 -410 -70 -172 -1 -316 -3 -320 -6 -9 -5 -8 -213 1 -222 4 -4 80
-7 170 -7 l162 0 40 -47 c22 -26 96 -112 165 -191 l126 -145 152 0 c84 1 152
5 152 9 1 4 -69 90 -155 190 l-156 182 51 7 c105 16 203 87 250 183 24 47 25
62 28 243 3 179 2 192 -15 193 -65 3 -182 3 -196 1z"/>
<path d="M1428 1472 c-27 -2 -38 -8 -39 -20 -1 -21 -1 -215 0 -222 1 -3 64 -5
141 -5 l141 0 -3 123 -3 124 -100 1 c-55 1 -117 1 -137 -1z"/>
<path d="M1397 1158 c-7 -4 -11 -120 -11 -365 l-1 -358 -147 0 c-82 0 -148 -4
-148 -8 0 -5 -5 -5 -12 -1 -7 4 -188 8 -402 8 l-390 1 -34 -32 c-19 -18 -36
-33 -38 -33 -1 0 -27 -23 -56 -51 -29 -28 -72 -68 -96 -90 l-44 -39 764 0 763
0 62 67 62 68 1 418 0 417 -27 1 c-139 4 -237 3 -246 -3z"/>
</g>
</svg>
